<svg xmlns="http://www.w3.org/2000/svg" viewBox="0 0 1200 630" fill="none">
  <rect width="1200" height="630" fill="#0f1117"/>
  <g opacity=".055" transform="translate(720 -60) scale(15)">
    <circle cx="6" cy="24" r="3" fill="#2dd4bf"/>
    <circle cx="26" cy="8" r="3" fill="#2dd4bf"/>
    <path d="M6 21 Q16 2 26 11" stroke="#2dd4bf" stroke-width="2.5" stroke-linecap="round"/>
  </g>
  <path opacity=".018" d="M0 60H1200M0 120H1200M0 180H1200M0 240H1200M0 300H1200M0 360H1200M0 420H1200M0 480H1200M0 540H1200M60 0V630M120 0V630M180 0V630M240 0V630M300 0V630M360 0V630M420 0V630M480 0V630M540 0V630M600 0V630M660 0V630M720 0V630M780 0V630M840 0V630M900 0V630M960 0V630M1020 0V630M1080 0V630M1140 0V630" stroke="#fff"/>
  <g transform="translate(96 112)">
    <g opacity=".5">
      <rect x="5" y="5" width="22" height="22" rx="4.5" stroke="#2dd4bf" stroke-width="2"/>
      <circle cx="16" cy="16" r="3" fill="#2dd4bf"/>
    </g>
    <text x="40" y="21" fill="#656d76" font-family="Geist, Arial, sans-serif" font-size="13" font-weight="500" letter-spacing=".52">Qhedroid</text>
  </g>
  <g transform="translate(96 184)">
    <g transform="scale(1.5)">
      <circle cx="6" cy="24" r="3" fill="#2dd4bf"/>
      <circle cx="26" cy="8" r="3" fill="#2dd4bf"/>
      <path d="M6 21 Q16 2 26 11" stroke="#2dd4bf" stroke-width="2.5" stroke-linecap="round"/>
    </g>
    <text x="68" y="52" fill="#e6edf3" font-family="Geist, Arial, sans-serif" font-size="72" font-weight="800" letter-spacing="-3.6">TBridge</text>
  </g>
  <text x="96" y="337" fill="#8d96a0" font-family="Geist, Arial, sans-serif" font-size="24" font-weight="400">
    <tspan x="96" dy="0">Timezone conversion for distributed teams.</tspan>
    <tspan x="96" dy="36">Fast. Offline. DST-aware.</tspan>
  </text>
  <g transform="translate(96 430)" font-family="Geist Mono, ui-monospace, monospace" font-variant-numeric="tabular-nums">
    <text x="0" y="0" fill="#e6edf3" font-size="32" font-weight="600">17:00</text>
    <text x="104" y="0" fill="#484f58" font-family="Geist, Arial, sans-serif" font-size="13" font-weight="600" letter-spacing=".65">BST</text>
    <text x="180" y="0" fill="#30363d" font-family="Geist, Arial, sans-serif" font-size="20">→</text>
    <text x="232" y="0" fill="#e6edf3" font-size="32" font-weight="600">12:00</text>
    <text x="336" y="0" fill="#484f58" font-family="Geist, Arial, sans-serif" font-size="13" font-weight="600" letter-spacing=".65">EDT</text>
    <text x="412" y="0" fill="#30363d" font-family="Geist, Arial, sans-serif" font-size="20">→</text>
    <rect x="466" y="-27" width="29" height="20" rx="4" fill="rgba(69,26,3,.55)" stroke="rgba(180,83,9,.55)"/>
    <text x="472" y="-12" fill="#fcd34d" font-family="Geist, Arial, sans-serif" font-size="11" font-weight="700">+1</text>
    <text x="506" y="0" fill="#e6edf3" font-size="32" font-weight="600">01:00</text>
    <text x="610" y="0" fill="#484f58" font-family="Geist, Arial, sans-serif" font-size="13" font-weight="600" letter-spacing=".65">JST</text>
  </g>
  <rect y="627" width="1200" height="3" fill="url(#bar)"/>
  <defs>
    <linearGradient id="bar" x1="0" x2="1200" y1="0" y2="0" gradientUnits="userSpaceOnUse">
      <stop stop-color="#0f766e"/>
      <stop offset=".6" stop-color="#2dd4bf"/>
      <stop offset="1" stop-color="#2dd4bf" stop-opacity="0"/>
    </linearGradient>
  </defs>
</svg>
